<svg width="17" height="17" viewBox="0 0 17 17" fill="none" xmlns="http://www.w3.org/2000/svg">
<rect x="4.53334" y="4.53333" width="7.93333" height="7.93333" fill="white"/>
<path fill-rule="evenodd" clip-rule="evenodd" d="M15.5833 8.49996C15.5833 12.4121 12.4121 15.5833 8.50001 15.5833C4.58788 15.5833 1.41667 12.4121 1.41667 8.49996C1.41667 4.58783 4.58788 1.41663 8.50001 1.41663C12.4121 1.41663 15.5833 4.58783 15.5833 8.49996ZM11.3546 6.35371C11.4541 6.45332 11.51 6.58834 11.51 6.72913C11.51 6.86991 11.4541 7.00493 11.3546 7.10454L9.58376 8.87538L7.81292 10.6462C7.71331 10.7457 7.57829 10.8016 7.43751 10.8016C7.29672 10.8016 7.1617 10.7457 7.06209 10.6462L5.64542 9.22954C5.59323 9.18091 5.55136 9.12226 5.52233 9.05709C5.49329 8.99192 5.47768 8.92158 5.47642 8.85025C5.47516 8.77891 5.48828 8.70806 5.515 8.64191C5.54172 8.57576 5.58149 8.51567 5.63194 8.46522C5.68238 8.41478 5.74247 8.37501 5.80862 8.34829C5.87477 8.32157 5.94563 8.30845 6.01696 8.30971C6.08829 8.31097 6.15864 8.32658 6.2238 8.35561C6.28897 8.38465 6.34762 8.42651 6.39625 8.47871L7.43751 9.51996L9.02063 7.93683L10.6038 6.35371C10.7034 6.25422 10.8384 6.19834 10.9792 6.19834C11.12 6.19834 11.255 6.25422 11.3546 6.35371Z" fill="#981B45"/>
</svg>
