<svg width="10" height="10" viewBox="0 0 10 10" fill="none" xmlns="http://www.w3.org/2000/svg">
<path d="M4.99996 5.58329L2.95829 7.62496C2.8819 7.70135 2.78468 7.73954 2.66663 7.73954C2.54857 7.73954 2.45135 7.70135 2.37496 7.62496C2.29857 7.54857 2.26038 7.45135 2.26038 7.33329C2.26038 7.21524 2.29857 7.11801 2.37496 7.04163L4.41663 4.99996L2.37496 2.95829C2.29857 2.8819 2.26038 2.78468 2.26038 2.66663C2.26038 2.54857 2.29857 2.45135 2.37496 2.37496C2.45135 2.29857 2.54857 2.26038 2.66663 2.26038C2.78468 2.26038 2.8819 2.29857 2.95829 2.37496L4.99996 4.41663L7.04163 2.37496C7.11801 2.29857 7.21524 2.26038 7.33329 2.26038C7.45135 2.26038 7.54857 2.29857 7.62496 2.37496C7.70135 2.45135 7.73954 2.54857 7.73954 2.66663C7.73954 2.78468 7.70135 2.8819 7.62496 2.95829L5.58329 4.99996L7.62496 7.04163C7.70135 7.11801 7.73954 7.21524 7.73954 7.33329C7.73954 7.45135 7.70135 7.54857 7.62496 7.62496C7.54857 7.70135 7.45135 7.73954 7.33329 7.73954C7.21524 7.73954 7.11801 7.70135 7.04163 7.62496L4.99996 5.58329Z" fill="white"/>
</svg>
